<?xml version='1.0' encoding='utf-8'?>
<svg xmlns="http://www.w3.org/2000/svg" viewBox="-1.44249 -43.184 76.7245 63.0654" width="767.245mm" height="630.654mm">
    <defs>
        <marker id="arrowend" markerWidth="10" markerHeight="7" refX="10" refY="3.5" orient="auto">
          <polygon points="0 0, 10 3.5, 0 7" />
        </marker>
        <marker id="arrowstart" markerWidth="10" markerHeight="7" refX="0" refY="3.5" orient="auto">
          <polygon points="10 0, 0 3.5, 10 7" />
        </marker>
    </defs>
    <style type="text/css">
    
        .cut path {
            stroke: #222222;
            fill: #444444;
            fill-rule: evenodd;
        }
        .projection path {
            stroke: #222222;
            fill: none;
            stroke-opacity: 0.6;
        }
        .IfcDoor path,
        .Symbol path {
            fill: none;
        }
        .Symbol path {
            stroke-width: 0.5px;
        }
        .IfcSpace path {
            fill-opacity: .2;
        }
        .Dimension path {
            marker-end: url(#arrowend);
            marker-start: url(#arrowstart);
        }
        text {
            font-size: 2;
        }
        path {
            stroke-width: 0.3;
        }
    
    </style>
    <g id="storey-34wvdGIQXFVhVJTqmuf60L" class="IfcBuildingStorey" data-name="02. 2L" data-guid="34wvdGIQXFVhVJTqmuf60L" data-plane="[[1.000000,0.000000,0.000000,0.000000],[0.000000,1.000000,0.000000,0.000000],[0.000000,0.000000,1.000000,8.775000],[0.000000,0.000000,0.000000,1.000000]]" data-matrix3="[[1.000000,0.000000,0.000000],[0.000000,1.000000,0.000000],[0.000000,0.000000,1.000000]]">
        <g id="3c_Afxcsv2CQ1FWP7uL8JW" class="IfcSpace" data-name="55" data-guid="3c_Afxcsv2CQ1FWP7uL8JW">
            <path d="M18.545419481674752,5.2516270334743389 L27.657091196782034,8.0373446361617127 L29.006386614077527,3.6239981873921439 L19.894714898970243,0.83828058470477185 L18.545419481674756,5.2516270334743407" />
            <text text-anchor="middle" x="23.775903047876138" y="4.4378126104332418"><tspan x="23.775903047876138" dy="-0.15000000000000002em">Meeting Room (16) C</tspan><tspan x="23.775903047876138" dy="1em">55</tspan></text>        </g>
        <g id="3c_Afxcsv2CQ1FWP7uL8Jg" class="IfcSpace" data-name="53" data-guid="3c_Afxcsv2CQ1FWP7uL8Jg">
            <path d="M0.19058414809825219,-0.36000928112155689 L9.2300548538388298,2.4036342577701313 L10.579350271134338,-2.0097121909994948 L1.5398795653937603,-4.7733557298911826 L0.19058414809825253,-0.36000928112155695" />
            <text text-anchor="middle" x="5.3849672096162955" y="-1.1848607360605259"><tspan x="5.3849672096162955" dy="-0.15000000000000002em">Meeting Room (16) A</tspan><tspan x="5.3849672096162955" dy="1em">53</tspan></text>        </g>
        <g id="3c_Afxcsv2CQ1FWP7uL8Jj" class="IfcSpace" data-name="54" data-guid="3c_Afxcsv2CQ1FWP7uL8Jj">
            <path d="M9.3648938244296218,2.4448586681360416 L18.410580511083968,5.2104026231084291 L19.759875928379465,0.79705617433883535 L10.714189241725121,-1.9684877806335541 L9.3648938244296218,2.4448586681360434" />
            <text text-anchor="middle" x="14.562384876404543" y="1.620957421237438"><tspan x="14.562384876404543" dy="-0.15000000000000002em">Meeting Room (16) B</tspan><tspan x="14.562384876404543" dy="1em">54</tspan></text>        </g>
        <g id="3c_Afxcsv2CQ1FWP7uL8zY" class="IfcSpace" data-name="52" data-guid="3c_Afxcsv2CQ1FWP7uL8zY">
            <path d="M52.264313252081479,-7.0786991240137747 L46.391645745712218,-8.8741537627161975 L42.79920151685765,2.8762018499908852 L48.671869023226918,4.6716564886933085 L52.264313252081486,-7.0786991240137773" />
            <text text-anchor="middle" x="47.531757384469572" y="-2.1012486370114454"><tspan x="47.531757384469572" dy="-0.15000000000000002em">Meeting Room (25)</tspan><tspan x="47.531757384469572" dy="1em">52</tspan></text>        </g>
        <g id="3c_Afxcsv2CQ1FWP7uL8yP" class="IfcSpace" data-name="56" data-guid="3c_Afxcsv2CQ1FWP7uL8yP">
            <path d="M39.899226529951363,11.780141014080732 L43.324232013432962,12.827270274545219 L45.082847817340259,7.0750971674274794 L41.65784233385866,6.0279679069629957 L39.899226529951356,11.780141014080735" />
            <text text-anchor="middle" x="42.491037173645807" y="9.4276190907541064"><tspan x="42.491037173645807" dy="-0.15000000000000002em">Meeting Room (6) A</tspan><tspan x="42.491037173645807" dy="1em">56</tspan></text>        </g>
        <g id="3c1SDiRujBJBN6onK0HXgF" class="IfcSpace" data-name="64" data-guid="3c1SDiRujBJBN6onK0HXgF">
            <path d="M41.498005582514018,6.0685075532320463 L39.33006270074582,5.4057008986255974 L38.770999272668789,7.2343149762500687 L40.93894215443698,7.8971216308565166 L41.498005582514011,6.0685075532320454" />
            <text text-anchor="middle" x="40.1345024275914" y="6.651411264741057"><tspan x="40.1345024275914" dy="-0.15000000000000002em">SPO-Booth C</tspan><tspan x="40.1345024275914" dy="1em">64</tspan></text>        </g>
        <g id="2$GF51JU14LxjeU0wa4O$r" class="IfcSpace" data-name="57" data-guid="2$GF51JU14LxjeU0wa4O$r">
            <path d="M43.459070984023739,12.868494684911116 L46.884076467505345,13.915623945375604 L48.642692271412642,8.1634508382578819 L45.217686787931036,7.1163215777933946 L43.459070984023747,12.86849468491112" />
            <text text-anchor="middle" x="46.050881627718191" y="10.5159727615845"><tspan x="46.050881627718191" dy="-0.15000000000000002em">Meeting Room (6) B</tspan><tspan x="46.050881627718191" dy="1em">57</tspan></text>        </g>
        <g id="2$GF51JU14LxjeU0wa4O$p" class="IfcSpace" data-name="59" data-guid="2$GF51JU14LxjeU0wa4O$p">
            <path d="M50.578759892168542,15.045202026571916 L54.003765375650147,16.092331287036401 L55.762381179557437,10.340158179918703 L52.337375696075831,9.2930289194542155 L50.578759892168549,15.04520202657192" />
            <text text-anchor="middle" x="53.170570535862986" y="12.692680103245308"><tspan x="53.170570535862986" dy="-0.15000000000000002em">Meeting Room (6) D</tspan><tspan x="53.170570535862986" dy="1em">59</tspan></text>        </g>
        <g id="04YpYjqS1CPRhK4eLpwgCf" class="IfcSpace" data-name="67" data-guid="04YpYjqS1CPRhK4eLpwgCf">
            <path d="M54.595220681661822,6.482606827745907 L55.478548694555464,3.5933710837923476 L49.71920330176814,1.8325624920996715 L48.835875288874497,4.7217982360532291 L54.595220681661814,6.482606827745907" />
            <text text-anchor="middle" x="52.157211991714973" y="4.1575846599227884"><tspan x="52.157211991714973" dy="-0.15000000000000002em">Printing Room 2L</tspan><tspan x="52.157211991714973" dy="1em">67</tspan></text>        </g>
        <g id="2$GF51JU14LxjeU0wa4O$s" class="IfcSpace" data-name="58" data-guid="2$GF51JU14LxjeU0wa4O$s">
            <path d="M47.018915438096151,13.956848355741519 L50.443920921577757,15.003977616206006 L52.202536725485047,9.2518045090882914 L48.777531242003441,8.2046752486238059 L47.018915438096158,13.956848355741521" />
            <text text-anchor="middle" x="49.610726081790595" y="11.604326432414904"><tspan x="49.610726081790595" dy="-0.15000000000000002em">Meeting Room (6) C</tspan><tspan x="49.610726081790595" dy="1em">58</tspan></text>        </g>
        <g id="2$GF51JU14LxjeU0wa4O$i" class="IfcSpace" data-name="60" data-guid="2$GF51JU14LxjeU0wa4O$i">
            <path d="M54.138604346240939,16.133555697402311 L57.563609829722537,17.180684957866799 L59.322225633629827,11.428511850749107 L55.897220150148229,10.38138259028462 L54.138604346240946,16.133555697402315" />
            <text text-anchor="middle" x="56.730414989935383" y="13.781033774075709"><tspan x="56.730414989935383" dy="-0.15000000000000002em">Meeting Room (6) E</tspan><tspan x="56.730414989935383" dy="1em">60</tspan></text>        </g>
        <g id="2$GF51JU14LxjeU0wa4O$f" class="IfcSpace" data-name="61" data-guid="2$GF51JU14LxjeU0wa4O$f">
            <path d="M61.055556646121609,18.248280237661898 L62.814172450028892,12.496107130544221 L59.457064604220605,11.469736261115031 L57.698448800313329,17.221909368232708 L61.055556646121616,18.248280237661895" />
            <text text-anchor="middle" x="60.256310625171103" y="14.859008249388463"><tspan x="60.256310625171103" dy="-0.15000000000000002em">Meeting Room (6) F</tspan><tspan x="60.256310625171103" dy="1em">61</tspan></text>        </g>
        <g id="2$GF51JU14LxjeU0wa4O_A" class="IfcSpace" data-name="66" data-guid="2$GF51JU14LxjeU0wa4O_A">
            <path d="M37.596444677592352,11.076109949108368 L39.76438755936055,11.738916603714818 L40.318188296752609,9.9275160116975769 L38.150245414984404,9.2647093570911316 L37.596444677592345,11.076109949108369" />
            <text text-anchor="middle" x="38.957316487172477" y="10.501812980402974"><tspan x="38.957316487172477" dy="-0.15000000000000002em">SPO-Booth E</tspan><tspan x="38.957316487172477" dy="1em">66</tspan></text>        </g>
        <g id="2$GF51JU14LxjeU0wa4O_9" class="IfcSpace" data-name="65" data-guid="2$GF51JU14LxjeU0wa4O_9">
            <path d="M40.360874565642099,9.7878955173271027 L40.896255885547475,8.0367421252271196 L38.72831300377927,7.373935470620669 L38.192931683873894,9.1250888627206557 L40.360874565642106,9.7878955173271063" />
            <text text-anchor="middle" x="39.544593784710685" y="8.5809154939738868"><tspan x="39.544593784710685" dy="-0.15000000000000002em">SPO-Booth D</tspan><tspan x="39.544593784710685" dy="1em">65</tspan></text>        </g>
        <g id="2$GF51JU14LxjeU0wa4O_7" class="IfcSpace" data-name="62" data-guid="2$GF51JU14LxjeU0wa4O_7">
            <path d="M31.284170685682689,4.4097933089994878 L29.116227803914477,3.7469866543930359 L28.47279077474591,5.8515743460786949 L30.640733656514115,6.5143810006851455 L31.284170685682692,4.4097933089994896" />
            <text text-anchor="middle" x="29.878480730214296" y="5.1306838275390909"><tspan x="29.878480730214296" dy="-0.15000000000000002em">SPO-Booth A</tspan><tspan x="29.878480730214296" dy="1em">62</tspan></text>        </g>
        <g id="2$GF51JU14LxjeU0wa4O_0" class="IfcSpace" data-name="63" data-guid="2$GF51JU14LxjeU0wa4O_0">
            <path d="M27.791930167372836,8.0785690465276154 L29.959873049141049,8.7413757011340678 L30.598047387624646,6.6540014950556294 L28.430104505856434,5.9911948404491753 L27.79193016737284,8.0785690465276154" />
            <text text-anchor="middle" x="29.19498877749874" y="7.3662852707916215"><tspan x="29.19498877749874" dy="-0.15000000000000002em">SPO-Booth B</tspan><tspan x="29.19498877749874" dy="1em">63</tspan></text>        </g>
        <g id="2$GF51JU14LxjeU0wa4OYF" class="IfcSpace" data-name="69" data-guid="2$GF51JU14LxjeU0wa4OYF">
            <path d="M24.87829683428517,-37.8532990850888 L12.783910585620763,-41.550924034717255 L10.345238196528431,-33.574386065229689 L22.439624445192837,-29.876761115601234 L24.87829683428517,-37.8532990850888" />
            <text text-anchor="middle" x="17.6117675154068" y="-35.713842575159248"><tspan x="17.6117675154068" dy="-0.15000000000000002em">Flexible Office Plan 2L</tspan><tspan x="17.6117675154068" dy="1em">69</tspan></text>        </g>
        <g id="2$GF51JU14LxjeU0wa4OY8" class="IfcSpace" data-name="68" data-guid="2$GF51JU14LxjeU0wa4OY8">
            <path d="M21.561432369378206,-26.765758087406734 L12.393118591388639,-29.591092812361289 L9.6093014048713066,-20.485637078459177 L18.78385015739158,-17.6806960362754 L21.546762767021491,-26.717775980126149 L21.561432369378203,-26.765758087406734" />
            <text text-anchor="middle" x="15.585366887124756" y="-23.625697582932954"><tspan x="15.585366887124756" dy="-0.15000000000000002em">Cafetaria</tspan><tspan x="15.585366887124756" dy="1em">68</tspan></text>        </g>
        <g id="2$GF51JU14LxjeU0wa4O_C" class="IfcSpace" data-name="51" data-guid="2$GF51JU14LxjeU0wa4O_C">
            <path d="M25.64515798718093,-28.896731161370653 L24.664470196614651,-25.689045933681534 L61.238015402939709,-14.507391034392482 L61.388246358918195,-14.461460821845002 L61.389771925344448,-14.460994409381888 L70.229522903985455,-11.75841131875708 L73.648883083644009,-22.942634515933946 L28.083830376273262,-36.87326913085824 L28.090262553777222,-36.894307835489585 L27.960205106966242,-36.934070387331872 L27.959738694503127,-36.932544820905598 L27.579654096099123,-35.689344116970389 L27.7097115429101,-35.649581565128088 L25.645157987180937,-28.896731161370653" />
            <text text-anchor="middle" x="49.156676640129334" y="-24.31584022480774"><tspan x="49.156676640129334" dy="-0.15000000000000002em">Open Office Plan</tspan><tspan x="49.156676640129334" dy="1em">51</tspan></text>        </g>
        <g id="0RkfFOj8H2fRrP9cIPTjcp" class="IfcSpace" data-name="70" data-guid="0RkfFOj8H2fRrP9cIPTjcp">
            <path d="M14.527648435753182,-5.7672793393900879 L16.457787013856073,-5.177176756597035 L17.322403237647436,-8.0052089961688573 L15.392264659544544,-8.5953115789619083 L14.527648435753182,-5.7672793393900879" />
            <text text-anchor="middle" x="15.925025836700309" y="-6.8862441677794717"><tspan x="15.925025836700309" dy="-0.15000000000000002em">Janitor 2L</tspan><tspan x="15.925025836700309" dy="1em">70</tspan></text>        </g>
        <g id="1VoQiKBEPF0PHeSuQomZT4" class="IfcSpace" data-name="72" data-guid="1VoQiKBEPF0PHeSuQomZT4">
            <path d="M27.94633868800484,-36.938309777050335 L25.028652877561562,-37.830335848159429 L23.195336103097564,-31.833826875893017 L26.113021913540845,-30.94180080478392 L27.946338688004843,-36.938309777050335" />
            <text text-anchor="middle" x="25.570837395551202" y="-34.386068326471673"><tspan x="25.570837395551202" dy="-0.15000000000000002em">Exit Stair A 2L</tspan><tspan x="25.570837395551202" dy="1em">72</tspan></text>        </g>
        <g id="3OYNytrmn7Uu_s2GfjP62c" class="IfcSpace" data-name="74" data-guid="3OYNytrmn7Uu_s2GfjP62c">
            <path d="M57.175074563118969,-2.2567345491846718 L57.360128713923473,-2.2001578175524568 L57.817646576058813,-3.6966313149210484 L57.946269565735875,-3.6573073206358231 L58.326352781875443,-4.9005035033877711 L58.197729792198366,-4.9398274976729892 L58.238851872467677,-5.0743317615993533 L52.370965889878519,-6.8683245417780947 L51.492242731334322,-3.9941505977311937 L51.632350558608586,-3.9513153362209401 L57.175074563118962,-2.2567345491846726" />
            <text text-anchor="middle" x="54.909297756604872" y="-4.4473270505594833"><tspan x="54.909297756604872" dy="-0.15000000000000002em">Exit Stair C 2L</tspan><tspan x="54.909297756604872" dy="1em">74</tspan></text>        </g>
        <g id="2$GF51JU14LxjeU0wa4Oe4" class="IfcSpace" data-name="75" data-guid="2$GF51JU14LxjeU0wa4Oe4">
            <path d="M25.50798004295244,-28.930305133689103 L24.529631226023955,-25.730270344047703 L21.525638911355003,-26.64868296150803 L21.56143236937794,-26.765758087406951 L12.393118591388369,-29.591092812361435 L9.5069713082181906,-20.15093041387243 L24.64049407133319,-15.524148186635081 L23.854306557333715,-12.952644697850344 L8.5534304619251671,-17.630591973414155 L5.6448436504171475,-8.1170331849047876 L54.832378773375844,6.9211054475093121 L54.934708870028807,6.5863987829222452 L54.929927346248974,6.5849369243986287 L55.817933306418198,3.6804003043496527 L64.680965784683607,6.3901012637200072 L62.814172450028892,12.49610713054407 L41.590422848563279,6.0073557017799502 L41.606649478175392,5.9542807878240023 L39.371287111111798,5.2708619280345985 L37.596444677592395,11.076109949108281 L29.959873049141095,8.7413757011339737 L31.32539509604868,4.27495433840852 L29.090032728985058,3.5915354786191127 L29.073806099372948,3.6446103925750633 L1.5398795653937523,-4.7733557298911737 L10.345238196528415,-33.574386065230009 L22.447274883240581,-29.874422141963755 L22.444935909602798,-29.866771703916051 L25.507980042952433,-28.930305133689096" />
            <text text-anchor="middle" x="34.229508050223018" y="2.1895369728196385"><tspan x="34.229508050223018" dy="-0.15000000000000002em">Corridor 2L</tspan><tspan x="34.229508050223018" dy="1em">75</tspan></text>        </g>
        <g id="1p4R1qkHTFKRTeSlZhOHHG" class="IfcSpace" data-name="Area:1046050" data-guid="1p4R1qkHTFKRTeSlZhOHHG">
            <path d="M74.281962049211799,-23.279248572912746 L12.447296528641964,-42.184003000285053 L-0.44249481746943786,-0.023395224142731763 L61.392170703100398,18.881359203229575 L74.281962049211813,-23.279248572912749 M23.152768618670862,-31.689464452563563 L26.067585514846193,-30.798315496568655 L25.541901189754711,-29.078879545347121 L22.627084293579379,-29.970028501342028 L23.152768618670866,-31.68946445256357 M19.345305238618543,-13.979832313539319 L20.695894445465136,-13.566915754959394 L17.991456176779803,-4.7210967623013174 L16.640866969933207,-5.1340133208812464 L19.345305238618543,-13.979832313539321 M21.382756507065679,-3.6714624772749063 L24.971546089611163,-15.409864280532309 L46.062847482375894,-8.9616063328723019 L42.474057899830413,2.7767954703851045 L21.382756507065675,-3.6714624772749058 M49.757427819972222,1.685303753112585 L51.449675246907439,-3.8497881744014633 L57.224799668168203,-2.084155449580841 L55.532552241232992,3.4509364779332063 L49.757427819972207,1.6853037531125832 M21.622034084963246,-26.459482583587828 L61.197511029548508,-14.360045048268173 L58.500346293709413,-5.5380167095658832 L18.926331207647738,-17.642235768665262 L21.622034084963246,-26.459482583587832" />
            <text text-anchor="middle" x="36.919733615871181" y="-11.651321898527739"><tspan x="36.919733615871181" dy="-0.15000000000000002em">Area 2L</tspan><tspan x="36.919733615871181" dy="1em">Area:1046050</tspan></text>        </g>
        <g id="2$GF51JU14LxjeU0wa4POw" class="IfcSpace" data-name="71" data-guid="2$GF51JU14LxjeU0wa4POw">
            <path d="M8.0051188814572818,-7.7823305799891829 L7.999271447362827,-7.763204484869922 L8.0757758278398715,-7.739814748492102 L8.0816232619343271,-7.7589408436113629 L9.1239954459338506,-7.4402556854635611 L9.1181480118393967,-7.4211295903443002 L10.362874282201027,-7.0405785794770654 L10.368721716295484,-7.0597046745963263 L10.625393912795939,-6.9812321090487268 L10.619546478701483,-6.9621060139294668 L10.696050859178525,-6.9387162775516469 L10.701898293272981,-6.9578423726709104 L12.464683539082303,-6.4189048382042353 L12.458836104987842,-6.3997787430849762 L12.611844865941931,-6.3529992703293248 L12.617692300036387,-6.3721253654485857 L14.380487108893288,-5.8331849072648669 L14.836016843436655,-7.3231555322931365 L13.742644926801457,-7.6574328734538515 L13.789424399557106,-7.8104416344079386 L14.882796316192302,-7.476164293247221 L15.239255898590343,-8.6420910517173688 L11.484162702493011,-9.7901382535012349 L11.530942175248658,-9.9431470144553185 L17.350056615283656,-8.1640651912171087 L18.428051899393285,-11.690028888959933 L18.447177994512554,-11.684181454865477 L18.493957467268196,-11.837190215819565 L18.47483137214893,-11.84303764991402 L19.199015275950583,-14.211736467927208 L17.458540620097867,-14.743852970522701 L16.710966979918396,-12.298649772032473 L16.557958218964306,-12.345429244788111 L17.305531859143787,-14.790632443278353 L16.124495485529472,-15.151711498611 L15.376921845349992,-12.706508300120767 L15.223913084395907,-12.753287772876414 L15.971486724575389,-15.198490971366649 L14.790450350961049,-15.559570026699301 L14.042876710781572,-13.114366828209068 L13.889867949827485,-13.161146300964704 L14.637441590006969,-15.606349499454948 L13.456405216392648,-15.967428554787595 L12.708831576213168,-13.522225356297353 L12.555822815259083,-13.569004829052998 L13.303396455438566,-16.014208027543248 L8.8613608639903543,-17.372274595980613 L8.1371769601887092,-15.003575777967431 L10.111946281252321,-14.399828207714867 L10.065166808496674,-14.246819446760783 L8.0903974874330711,-14.850567017013343 L7.6810771008211596,-13.511740358665119 L9.6558464218847622,-12.907992788412555 L9.6090669491291134,-12.754984027458471 L7.6342976280655108,-13.358731597711035 L7.2249772414535993,-12.019904939362812 L9.1997465625172161,-11.416157369110252 L9.1529670897615656,-11.263148608156168 L7.1781977686979523,-11.866896178408732 L6.7688773820860417,-10.528069520060502 L8.7436467031496559,-9.9243219498079469 L8.6968672303940089,-9.7713131888538634 L6.7220979093304054,-10.375060759106427 L6.1068539408707219,-8.3626884138639248 L8.0051188814572818,-7.7823305799891811 M13.043497126858362,-8.0384944878087676 L12.996717654102714,-7.8854857268546841 L11.826841356990473,-8.2431528043932172 L11.87362082974612,-8.3961615653473025 L13.043497126858362,-8.0384944878087659 M16.515635538526979,-10.233239374791395 L16.468856065771334,-10.080230613837315 L11.914864755369072,-11.472525480523696 L11.961644228124719,-11.625534241477778 L16.515635538526983,-10.233239374791397" />
            <text text-anchor="middle" x="12.608027688299298" y="-11.106125487462995"><tspan x="12.608027688299298" dy="-0.15000000000000002em">Unisex Toilet 2L</tspan><tspan x="12.608027688299298" dy="1em">71</tspan></text>        </g>
        <g id="1zLYrwYVH8Leo3E36ko6XX" class="IfcSpace" data-name="73" data-guid="1zLYrwYVH8Leo3E36ko6XX">
            <path d="M20.977880633345109,-3.544279432496761 L23.785453020871451,-12.727434927820987 L20.963875838402558,-13.590077642605424 L18.228592354868994,-4.6433684981932455 L19.739410423577173,-4.1814650604870334 L19.667121519584416,-3.9450187095749709 L20.977880633345109,-3.544279432496761" />
            <text text-anchor="middle" x="21.007022687870219" y="-8.6854017130071153"><tspan x="21.007022687870219" dy="-0.15000000000000002em">Exit Stair B 2L</tspan><tspan x="21.007022687870219" dy="1em">73</tspan></text>        </g>
        <g id="2$GF51JU14LxjeU0wa4Ofy" class="IfcSpace" data-name="49" data-guid="2$GF51JU14LxjeU0wa4Ofy">
            <path d="M64.680965784683551,6.3901012637202559 L67.492850654854408,-2.8071597267539374 L59.648282741689393,-5.2054848205946671 L59.643166236856793,-5.1887494873654472 L58.624701671756398,-5.500125352895088 L58.56388555040575,-5.3012047831292648 L58.488748829060427,-5.0554436413725909 L58.431546305031375,-4.8683426158682632 L58.051463088891815,-3.6251464331163268 L57.284177405602726,-1.115468046804879 L57.23158064402476,-1.1315484905646285 L56.996952350984721,-0.36411392390415731 L56.724405495535237,-0.44743985975014322 L56.666662083852543,-0.25856967044757972 L56.991805700879993,-0.15916329084183722 L56.721361874011464,0.72541860842394001 L56.68627726944473,0.84017517913951512 L56.417880044509218,1.7180629451136733 L56.365283282931252,1.7019825013539238 L56.072911578208519,2.6582872573169682 L56.125508339786478,2.6743677010767177 L55.817933306418141,3.680400304349881 L64.680965784683551,6.3901012637202603" />
            <text text-anchor="middle" x="61.655391980636267" y="0.43662028879797044"><tspan x="61.655391980636267" dy="-0.15000000000000002em">Lobby Lift 2L</tspan><tspan x="61.655391980636267" dy="1em">49</tspan></text>        </g>
        <g id="2rVaTwC2X9iwiXglPsefFQ" class="IfcSpace" data-name="50" data-guid="2rVaTwC2X9iwiXglPsefFQ">
            <path d="M67.492850654854379,-2.8071597267539534 L70.184059103901063,-11.609705929204871 L61.342782558833832,-14.312755432292791 L60.54083482768543,-11.68970259597863 L60.540368415222289,-11.688177029552367 L60.494438202674793,-11.537946073573861 L59.582047060067332,-8.5536491156945296 L59.559374552256372,-8.4769254564390142 L58.652291338353969,-5.5099899510633819 L59.648282741689371,-5.2054848205946698 L67.492850654854379,-2.8071597267539463" />
            <text text-anchor="middle" x="64.418175221127512" y="-8.5598479401341265"><tspan x="64.418175221127512" dy="-0.15000000000000002em">Office Lounge 2L</tspan><tspan x="64.418175221127512" dy="1em">50</tspan></text>        </g>
    </g>
<rect id="inset-border" x="-0.44249481746943786" y="-42.18400300028505" width="74.72445686668125" height="61.065362203514624" fill="none" stroke="black" stroke-width="0.025" /></svg>